<?xml version="1.0" standalone="no"?>
<!DOCTYPE svg PUBLIC "-//W3C//DTD SVG 20010904//EN"
 "http://www.w3.org/TR/2001/REC-SVG-20010904/DTD/svg10.dtd">
<svg version="1.0" xmlns="http://www.w3.org/2000/svg"
 width="240.000000pt" height="240.000000pt" viewBox="0 0 240.000000 240.000000"
 preserveAspectRatio="xMidYMid meet">
<metadata>
Created by potrace 1.11, written by Peter Selinger 2001-2013
</metadata>
<g transform="translate(0.000000,240.000000) scale(0.100000,-0.100000)"
fill="#000000" stroke="none">
<path d="M639 2398 c0 -2 -2 -83 -3 -180 -1 -153 1 -178 14 -180 8 0 26 -2 40
-3 64 -7 146 -16 169 -20 14 -2 54 -6 88 -9 33 -3 76 -8 95 -10 18 -3 60 -8
93 -11 33 -3 74 -8 90 -10 101 -13 126 -15 185 -21 36 -3 76 -7 90 -9 14 -3
55 -7 92 -11 l68 -6 0 50 c0 51 -6 59 -55 68 -13 2 -282 73 -315 83 -22 7 -25
14 -28 63 l-3 56 58 6 c32 4 69 9 83 11 14 2 43 6 65 9 22 3 67 8 100 12 80 7
95 12 96 32 1 9 2 31 3 47 l1 30 -512 3 c-282 1 -513 1 -514 0z m549 -163 l-3
-59 -210 3 c-116 2 -228 4 -250 4 l-40 2 -2 58 -2 58 255 -3 255 -3 -3 -60z"/>
<path d="M1801 1955 c-5 -5 -11 -31 -15 -56 -9 -59 -15 -97 -22 -132 l-6 -28
-161 6 c-89 3 -238 7 -332 11 -93 3 -222 7 -285 9 -63 2 -206 7 -318 10 l-202
6 0 -95 0 -96 48 0 c26 -1 355 -1 732 -1 l685 0 3 185 c1 102 -1 187 -5 187
-39 6 -116 3 -122 -6z"/>
<path d="M210 710 l0 -710 190 0 190 0 0 63 0 64 -72 12 c-40 6 -89 15 -108
18 -19 4 -39 6 -43 5 -4 -1 -5 44 -3 100 3 57 8 189 11 293 3 105 8 237 10
295 2 58 7 202 10 320 4 118 7 217 7 220 2 28 -6 30 -97 30 l-95 0 0 -710z"/>
<path d="M2005 1248 c6 -184 12 -367 20 -618 2 -85 7 -225 10 -311 l6 -156
-53 -8 c-29 -4 -60 -9 -68 -10 -64 -9 -99 -18 -102 -28 -3 -7 -4 -34 -4 -62
l1 -50 188 -3 187 -2 1 37 c1 49 1 1366 0 1376 -1 4 -44 7 -97 7 l-95 0 6
-172z"/>
<path d="M1067 1214 c-1 -1 -33 -4 -71 -8 -100 -9 -116 -15 -117 -40 0 -11 -1
-207 -1 -435 -1 -395 0 -414 18 -425 51 -30 89 -34 342 -35 l262 -2 1 53 c0
29 2 114 4 188 16 618 16 656 -2 673 -32 28 -112 38 -276 36 -87 -2 -159 -4
-160 -5z m191 -83 l73 -1 -6 -227 c-11 -453 -14 -546 -19 -551 -5 -5 -176 -3
-211 2 -22 3 -23 36 -12 486 3 107 6 216 6 242 1 45 2 47 34 50 17 2 39 3 47
2 8 -2 48 -3 88 -3z"/>
</g>
</svg>
